# xmcd
#
# Track frame offsets: 
#        150
#        13204
#        31876
#        49675
#        59501
#        76672
#        91364
#        101016
#        122821
#        139675
#        150735
#        160911
#
# Disc length: 2401 seconds
#
# Revision: 0
# Processed by: cddbd v1.5.2PL0 Copyright (c) Steve Scherf et al.
# Submitted via: ExactAudioCopy v0.99pb5
#
DISCID=94095f0c
DTITLE=Junior Wells - Hoodoo Man Blues
DYEAR=2009
DGENRE=Blues-Rock
TTITLE0=Snatch It Back And Hold It
TTITLE1=Ships On The Ocean
TTITLE2=Good Morning Schoolgirl
TTITLE3=Hound Dog
TTITLE4=In The Wee Hours
TTITLE5=Hey Lawdy Mama
TTITLE6=Hoodoo Man Blues
TTITLE7=Early In The Morning
TTITLE8=We're Ready
TTITLE9=You Don't Love Me Baby
TTITLE10=Chitlin Con Carne
TTITLE11=Yonder Wall
EXTD=
EXTT0=
EXTT1=
EXTT2=
EXTT3=
EXTT4=
EXTT5=
EXTT6=
EXTT7=
EXTT8=
EXTT9=
EXTT10=
EXTT11=
PLAYORDER=
